<svg width="112" height="48" viewBox="0 0 112 48" fill="none" xmlns="http://www.w3.org/2000/svg">
<circle cx="24" cy="24" r="23.5" stroke="#1C1C1C"/>
<path d="M29.3738 34.0401C29.7288 33.6851 29.7611 33.1295 29.4706 32.7381L29.3738 32.6259L20.748 23.9997L29.3738 15.3734C29.7288 15.0184 29.7611 14.4629 29.4706 14.0714L29.3738 13.9592C29.0187 13.6042 28.4632 13.5719 28.0717 13.8624L27.9595 13.9592L18.6262 23.2926C18.2712 23.6476 18.2389 24.2031 18.5294 24.5946L18.6262 24.7068L27.9595 34.0401C28.3501 34.4306 28.9832 34.4306 29.3738 34.0401Z" fill="#1C1C1C"/>
<circle cx="88" cy="24" r="23.5" stroke="#1C1C1C"/>
<path d="M82.6262 34.0401C82.2712 33.6851 82.2389 33.1295 82.5294 32.7381L82.6262 32.6259L91.252 23.9997L82.6262 15.3734C82.2712 15.0184 82.2389 14.4629 82.5294 14.0714L82.6262 13.9592C82.9813 13.6042 83.5368 13.5719 83.9283 13.8624L84.0405 13.9592L93.3738 23.2926C93.7288 23.6476 93.7611 24.2031 93.4706 24.5946L93.3738 24.7068L84.0405 34.0401C83.6499 34.4306 83.0168 34.4306 82.6262 34.0401Z" fill="#1C1C1C"/>
</svg>
